<?xml version="1.0" standalone="no"?>
<!DOCTYPE svg PUBLIC "-//W3C//DTD SVG 20010904//EN"
 "http://www.w3.org/TR/2001/REC-SVG-20010904/DTD/svg10.dtd">
<svg version="1.0" xmlns="http://www.w3.org/2000/svg"
 width="348.000000pt" height="348.000000pt" viewBox="0 0 348.000000 348.000000"
 preserveAspectRatio="xMidYMid meet">
<metadata>
Created by potrace 1.11, written by Peter Selinger 2001-2013
</metadata>
<g transform="translate(0.000000,348.000000) scale(0.100000,-0.100000)"
fill="#000000" stroke="none">
<path d="M1595 3433 c-337 -71 -650 -425 -814 -918 -43 -130 -86 -326 -97
-442 -4 -40 -9 -73 -12 -73 -2 0 -20 13 -38 30 -57 50 -113 73 -174 73 -64 0
-106 -19 -144 -64 -51 -60 -60 -94 -60 -224 0 -107 3 -128 28 -195 40 -107 87
-179 160 -248 74 -69 141 -97 212 -89 l43 4 11 -56 c75 -370 233 -697 448
-922 189 -200 370 -283 612 -282 225 1 403 79 579 253 217 215 382 539 465
910 l23 104 48 -3 c101 -6 239 97 312 234 58 110 78 188 78 305 -1 92 -4 112
-27 161 -30 65 -75 104 -138 118 -65 14 -136 -7 -217 -65 l-22 -16 0 154 c0
163 -16 285 -52 390 -47 142 -137 281 -236 366 l-55 47 42 37 c23 21 65 46 93
57 41 16 46 20 26 20 -15 1 -56 -14 -93 -32 l-66 -34 16 26 c27 43 56 71 106
104 27 16 46 32 44 35 -12 11 -113 -58 -158 -107 l-50 -55 -21 29 c-47 67
-187 200 -262 250 -146 97 -274 136 -443 134 -53 0 -128 -7 -167 -16z m740
-766 c0 -99 1 -106 38 -179 40 -82 72 -113 166 -164 94 -50 234 -243 267 -368
17 -63 19 -362 3 -504 -15 -141 -55 -332 -94 -448 -92 -277 -286 -564 -478
-710 -76 -58 -202 -118 -288 -139 -94 -22 -268 -20 -363 5 -264 67 -503 298
-676 655 -146 301 -207 604 -198 980 4 164 6 174 42 282 62 187 106 264 210
368 102 101 170 145 287 187 211 74 364 97 719 105 161 4 282 11 310 19 25 7
47 13 50 13 3 1 5 -45 5 -102z m829 -637 c20 -18 41 -50 50 -77 31 -91 15
-259 -34 -351 -19 -36 -19 -36 -20 -9 0 25 -17 36 -33 21 -3 -3 -27 -8 -53
-10 -48 -4 -134 -38 -185 -74 -24 -18 -29 -19 -29 -6 0 9 19 25 43 37 23 12
53 30 66 40 52 41 139 177 155 241 3 15 15 32 26 38 50 27 9 60 -72 60 -62 0
-119 -24 -171 -70 -34 -30 -37 -31 -37 -11 0 12 7 33 16 46 32 49 190 154 231
155 7 0 28 -14 47 -30z m-2657 -21 c80 -46 153 -116 153 -147 l0 -26 -32 31
c-49 47 -113 73 -184 73 -87 0 -95 -12 -56 -94 17 -35 44 -79 60 -97 16 -19
37 -48 46 -66 24 -47 81 -99 132 -120 29 -12 44 -24 44 -36 0 -17 -2 -17 -30
3 -16 12 -47 24 -67 27 -21 3 -50 12 -65 19 -15 8 -40 14 -56 14 -16 0 -35 7
-42 15 -7 8 -19 15 -26 15 -26 0 -14 -54 21 -103 57 -77 156 -139 246 -153 48
-8 50 -21 5 -30 -105 -19 -244 100 -314 269 -73 173 -62 341 25 418 41 36 59
34 140 -12z m2637 -481 c-23 -45 -102 -126 -149 -153 -48 -28 -107 -40 -130
-27 -15 8 -11 11 19 16 89 17 188 79 238 151 37 53 45 57 22 13z"/>
<path d="M1904 2602 c4 -15 19 -47 34 -72 33 -53 113 -98 225 -126 127 -31
227 -93 310 -193 15 -18 30 -31 32 -29 12 12 -64 138 -110 184 -65 65 -115 91
-285 144 -116 36 -140 47 -173 81 -38 38 -39 38 -33 11z"/>
<path d="M1109 2492 c-87 -45 -142 -146 -154 -282 l-5 -55 14 36 c45 114 117
204 197 245 54 27 153 45 204 37 21 -3 35 -2 35 5 0 18 -92 42 -166 42 -59 0
-81 -5 -125 -28z"/>
<path d="M1391 2164 c-3 -210 -121 -341 -216 -239 -43 45 -65 111 -72 214 -9
123 -28 78 -28 -64 0 -130 22 -192 86 -250 32 -29 47 -35 84 -35 37 0 52 6 84
35 56 51 83 121 88 230 3 62 0 104 -10 135 l-15 45 -1 -71z"/>
<path d="M1978 2185 c-25 -111 -14 -218 30 -298 38 -70 73 -97 129 -97 61 0
103 32 139 107 23 47 29 74 32 150 3 51 1 109 -3 130 -8 35 -9 31 -21 -52 -15
-105 -32 -151 -75 -200 -25 -28 -38 -35 -69 -35 -83 0 -133 97 -153 295 l-3
30 -6 -30z"/>
<path d="M1670 1993 c-50 -199 -89 -314 -136 -403 -19 -35 -34 -68 -34 -72 0
-4 12 -3 28 3 l27 10 -27 -28 c-16 -16 -28 -32 -28 -35 0 -4 31 9 68 27 37 19
106 44 152 56 120 30 115 28 103 40 -6 6 -55 10 -112 10 -55 0 -101 2 -101 5
0 3 6 19 14 37 20 49 63 241 75 332 14 108 21 185 17 185 -2 0 -22 -75 -46
-167z"/>
<path d="M2575 2016 c-16 -12 -17 -16 -6 -30 18 -21 28 -20 40 3 15 27 -9 46
-34 27z"/>
<path d="M2500 1935 c0 -20 4 -26 18 -23 9 2 17 12 17 23 0 11 -8 21 -17 23
-14 3 -18 -3 -18 -23z"/>
<path d="M2606 1924 c-8 -21 11 -45 30 -37 20 7 14 47 -7 51 -9 2 -19 -5 -23
-14z"/>
<path d="M870 1906 c0 -28 24 -41 40 -21 16 20 5 45 -20 45 -14 0 -20 -7 -20
-24z"/>
<path d="M2523 1868 c-6 -7 -27 -46 -49 -87 -47 -92 -165 -218 -269 -290 -289
-200 -653 -232 -950 -84 -129 65 -227 153 -299 270 -42 68 -62 82 -71 53 -8
-26 34 -103 101 -184 50 -61 56 -74 116 -266 37 -119 69 -205 77 -208 8 -3 24
7 37 23 19 25 22 26 26 9 2 -12 17 9 42 64 22 45 42 82 47 82 4 0 31 -54 60
-121 38 -86 59 -123 74 -129 46 -18 79 -252 56 -400 -7 -41 -14 -76 -16 -78
-8 -8 -62 19 -131 64 -76 50 -94 54 -94 20 0 -18 13 -33 53 -59 132 -87 247
-127 382 -134 171 -8 314 36 453 142 193 146 332 461 382 865 18 151 25 427
10 445 -15 18 -24 19 -37 3z m-63 -278 l0 -71 -30 23 c-16 12 -30 27 -30 33 0
10 50 84 58 85 1 0 2 -32 2 -70z m-145 -268 c-7 -7 -106 89 -103 99 2 4 26 25
53 46 l50 40 3 -90 c1 -49 0 -92 -3 -95z m-1059 22 c19 -8 34 -18 34 -22 0 -4
-22 -45 -49 -91 l-48 -83 -36 113 c-20 63 -39 127 -43 142 l-7 28 58 -36 c31
-20 72 -43 91 -51z m864 -5 c-4 -19 -16 -69 -25 -112 -14 -65 -19 -76 -31 -66
-20 16 -104 129 -104 139 0 5 21 16 48 25 26 9 63 24 82 35 19 10 36 17 37 16
1 -1 -2 -18 -7 -37z m-658 -60 c35 -7 75 -15 90 -18 l28 -6 -51 -85 c-57 -95
-57 -95 -64 -88 -3 2 -25 53 -50 112 -30 72 -40 106 -31 103 9 -4 43 -11 78
-18z m389 -41 c-10 -24 -31 -70 -45 -103 l-27 -60 -54 85 c-30 47 -55 88 -55
91 0 5 96 19 182 27 16 2 16 -1 -1 -40z"/>
<path d="M814 1835 c-7 -18 3 -35 21 -35 15 0 24 19 18 38 -6 17 -32 15 -39
-3z"/>
<path d="M917 1844 c-4 -4 -7 -16 -7 -26 0 -13 7 -18 26 -18 21 0 25 4 22 22
-3 23 -27 35 -41 22z"/>
<path d="M2180 525 c-51 -53 -150 -113 -232 -143 -58 -20 -97 -26 -194 -30
-138 -5 -228 10 -351 57 -42 17 -79 29 -81 27 -7 -8 147 -96 209 -120 244 -92
502 -14 665 199 36 48 26 53 -16 10z"/>
</g>
</svg>
