<?xml version="1.0" encoding="utf-8"?>
<!-- Generator: Adobe Illustrator 17.0.0, SVG Export Plug-In . SVG Version: 6.00 Build 0)  -->
<!DOCTYPE svg PUBLIC "-//W3C//DTD SVG 1.1//EN" "http://www.w3.org/Graphics/SVG/1.1/DTD/svg11.dtd">
<svg version="1.1" id="Layer_1" xmlns="http://www.w3.org/2000/svg" xmlns:xlink="http://www.w3.org/1999/xlink" x="0px" y="0px"
	 width="80px" height="80px" viewBox="0 0 80 80" enable-background="new 0 0 80 80" xml:space="preserve">
<g>
	<path fill="none" stroke="#D8D8D8" stroke-width="2" stroke-linecap="round" stroke-linejoin="round" stroke-miterlimit="10" d="
		M-865.925,75.043c14.211,0,24-12.393,24-29s-9.629-29-24-29s-24,11.913-24,29S-880.136,75.043-865.925,75.043z"/>
	<path fill="none" stroke="#D8D8D8" stroke-width="2" stroke-linecap="round" stroke-linejoin="round" stroke-miterlimit="10" d="
		M-889.783,42.522c1.472-16.465,26.463-7.702,37.179-21.136"/>
	<path fill="none" stroke="#D8D8D8" stroke-width="2" stroke-linecap="round" stroke-linejoin="round" stroke-miterlimit="10" d="
		M-852.605,21.385c-3.2,12.524,9.112,16.047,10.623,22.508"/>
	<path fill="none" stroke="#D8D8D8" stroke-width="2" stroke-linecap="round" stroke-linejoin="round" stroke-miterlimit="10" d="
		M-841.981,48.102c1.306-2.448,2.992-3.009,4.298-3.009c1.306,0,3.555,0.545,3.268,4.726c-0.306,4.457-4.94,8.445-9.51,8.445"/>
	<path fill="none" stroke="#D8D8D8" stroke-width="2" stroke-linecap="round" stroke-linejoin="round" stroke-miterlimit="10" d="
		M-889.877,48.079c-1.306-2.448-2.911-3.028-4.216-3.028c-1.306,0-3.994,0.796-3.994,4.74s5.206,8.423,9.776,8.423"/>
	<path fill="none" stroke="#D8D8D8" stroke-width="2" stroke-linecap="round" stroke-linejoin="round" stroke-miterlimit="10" d="
		M-869.031,43.043c0,0-0.766,7.94-2.894,14.239c0,0,4.52-1.395,6.374-2.463"/>
	<path fill="none" stroke="#D8D8D8" stroke-width="2" stroke-linecap="round" stroke-linejoin="round" stroke-miterlimit="10" d="
		M-883.205,41.81c0,3.752,0.664,7.507,3.839,7.026s4.657-7.026,4.657-7.026"/>
	<path fill="none" stroke="#D8D8D8" stroke-width="2" stroke-linecap="round" stroke-linejoin="round" stroke-miterlimit="10" d="
		M-860.445,42.043c0,3.752,0.629,7.902,3.804,7.421s4.918-7.712,4.918-7.712"/>
	<path fill="none" stroke="#D8D8D8" stroke-width="2" stroke-linecap="round" stroke-linejoin="round" stroke-miterlimit="10" d="
		M-877.875,60.562c0,4.628,11.95,7.701,21.289-1.532"/>
	<polyline fill="none" stroke="#D8D8D8" stroke-linecap="round" stroke-linejoin="round" stroke-miterlimit="10" points="
		-856.087,59.03 -856.087,64.337 -860.162,61.923 	"/>
	<path fill="none" stroke="#D8D8D8" stroke-linecap="round" stroke-linejoin="round" stroke-miterlimit="10" d="M-895.21,49.113
		c2.122-0.236,4.761,2.065,6.068,5.238"/>
	<path fill="none" stroke="#D8D8D8" stroke-linecap="round" stroke-linejoin="round" stroke-miterlimit="10" d="M-837.476,48.878
		c-1.051,0.263-4.18,1.811-5.431,5.941"/>
	<path fill="none" stroke="#D8D8D8" stroke-width="2" stroke-linecap="round" stroke-linejoin="round" stroke-miterlimit="10" d="
		M-883.284,37.141c1.918,0.479,6.354,0.426,9.15-0.613"/>
	<path fill="none" stroke="#D8D8D8" stroke-width="2" stroke-linecap="round" stroke-linejoin="round" stroke-miterlimit="10" d="
		M-851.37,37.432c-1.632-0.904-6.279-1.631-9.076-0.593"/>
	<path fill="none" stroke="#D8D8D8" stroke-linecap="round" stroke-linejoin="round" stroke-miterlimit="10" d="M-889.783,42.522
		c2.345-22.33,26.992-15.694,37.179-21.136"/>
	<path fill="none" stroke="#D8D8D8" stroke-linecap="round" stroke-linejoin="round" stroke-miterlimit="10" d="M-889.783,42.522
		c1.998-25.541,25.923-22.963,37.179-21.136"/>
	<path fill="none" stroke="#D8D8D8" stroke-linecap="round" stroke-linejoin="round" stroke-miterlimit="10" d="M-852.605,21.385
		c3.051,12.372,8.734,10.953,10.623,22.508"/>
	<path fill="none" stroke="#D8D8D8" stroke-width="2" stroke-linecap="round" stroke-linejoin="round" stroke-miterlimit="10" d="
		M-852.605,21.385c0.266-1.86,0.531-5.845-0.797-7.97"/>
	<path fill="none" stroke="#D8D8D8" stroke-width="2" stroke-linecap="round" stroke-linejoin="round" stroke-miterlimit="10" d="
		M-851.724,22.08c2.488-1.756,3.583-3.846,3.497-6.258"/>
	
		<line fill="none" stroke="#D8D8D8" stroke-linecap="round" stroke-linejoin="round" stroke-miterlimit="10" x1="-896.868" y1="21.248" x2="-897.915" y2="33.123"/>
	
		<line fill="none" stroke="#D8D8D8" stroke-linecap="round" stroke-linejoin="round" stroke-miterlimit="10" x1="-902.451" y1="23.69" x2="-892.681" y2="31.352"/>
	
		<line fill="none" stroke="#D8D8D8" stroke-linecap="round" stroke-linejoin="round" stroke-miterlimit="10" x1="-902.451" y1="29.994" x2="-893.728" y2="25.609"/>
	
		<line fill="none" stroke="#D8D8D8" stroke-linecap="round" stroke-linejoin="round" stroke-miterlimit="10" x1="-839.517" y1="21.522" x2="-830.968" y2="24.662"/>
	
		<line fill="none" stroke="#D8D8D8" stroke-linecap="round" stroke-linejoin="round" stroke-miterlimit="10" x1="-830.096" y1="19.27" x2="-839.517" y2="27.454"/>
	
		<line fill="none" stroke="#D8D8D8" stroke-linecap="round" stroke-linejoin="round" stroke-miterlimit="10" x1="-836.028" y1="16.835" x2="-833.411" y2="29.3"/>
	
		<line fill="none" stroke="#D8D8D8" stroke-linecap="round" stroke-linejoin="round" stroke-miterlimit="10" x1="-870.094" y1="4.407" x2="-861.757" y2="8.225"/>
	
		<line fill="none" stroke="#D8D8D8" stroke-linecap="round" stroke-linejoin="round" stroke-miterlimit="10" x1="-870.291" y1="8.898" x2="-860.858" y2="3.733"/>
	
		<line fill="none" stroke="#D8D8D8" stroke-linecap="round" stroke-linejoin="round" stroke-miterlimit="10" x1="-866.024" y1="1.038" x2="-866.473" y2="11.593"/>
	
		<line fill="none" stroke="#D8D8D8" stroke-linecap="round" stroke-linejoin="round" stroke-miterlimit="10" x1="-842.761" y1="73.78" x2="-833.442" y2="70.091"/>
	<path fill="none" stroke="#D8D8D8" stroke-linecap="round" stroke-linejoin="round" stroke-miterlimit="10" d="M-842.761,67.978"/>
	
		<line fill="none" stroke="#D8D8D8" stroke-linecap="round" stroke-linejoin="round" stroke-miterlimit="10" x1="-842.761" y1="68.926" x2="-834.801" y2="75.138"/>
	
		<line fill="none" stroke="#D8D8D8" stroke-linecap="round" stroke-linejoin="round" stroke-miterlimit="10" x1="-839.654" y1="77.08" x2="-838.296" y2="67.179"/>
	
		<line fill="none" stroke="#D8D8D8" stroke-linecap="round" stroke-linejoin="round" stroke-miterlimit="10" x1="-890.331" y1="64.435" x2="-898.81" y2="68.978"/>
	
		<line fill="none" stroke="#D8D8D8" stroke-linecap="round" stroke-linejoin="round" stroke-miterlimit="10" x1="-890.331" y1="69.288" x2="-897.613" y2="63.789"/>
	
		<line fill="none" stroke="#D8D8D8" stroke-linecap="round" stroke-linejoin="round" stroke-miterlimit="10" x1="-893.437" y1="61.134" x2="-894.796" y2="71.035"/>
</g>
<g>
	<path fill="none" stroke="#F5A623" stroke-width="2" stroke-linecap="round" stroke-linejoin="round" stroke-miterlimit="10" d="
		M-774.401,75.043c14.211,0,24-12.393,24-29s-9.629-29-24-29s-24,11.913-24,29S-788.611,75.043-774.401,75.043z"/>
	<path fill="none" stroke="#F5A623" stroke-width="2" stroke-linecap="round" stroke-linejoin="round" stroke-miterlimit="10" d="
		M-798.258,42.522c1.472-16.465,26.463-7.702,37.179-21.136"/>
	<path fill="none" stroke="#F5A623" stroke-width="2" stroke-linecap="round" stroke-linejoin="round" stroke-miterlimit="10" d="
		M-761.08,21.385c-3.2,12.524,9.112,16.047,10.623,22.508"/>
	<path fill="none" stroke="#F5A623" stroke-width="2" stroke-linecap="round" stroke-linejoin="round" stroke-miterlimit="10" d="
		M-750.456,48.102c1.306-2.448,2.992-3.009,4.298-3.009c1.306,0,3.555,0.545,3.268,4.726c-0.306,4.457-4.94,8.445-9.51,8.445"/>
	<path fill="none" stroke="#F5A623" stroke-width="2" stroke-linecap="round" stroke-linejoin="round" stroke-miterlimit="10" d="
		M-798.352,48.079c-1.306-2.448-2.911-3.028-4.216-3.028c-1.306,0-3.994,0.796-3.994,4.74s5.206,8.423,9.776,8.423"/>
	<path fill="none" stroke="#F5A623" stroke-width="2" stroke-linecap="round" stroke-linejoin="round" stroke-miterlimit="10" d="
		M-777.507,43.043c0,0-0.766,7.94-2.894,14.239c0,0,4.52-1.395,6.374-2.463"/>
	<path fill="none" stroke="#F5A623" stroke-width="2" stroke-linecap="round" stroke-linejoin="round" stroke-miterlimit="10" d="
		M-791.68,41.81c0,3.752,0.664,7.507,3.839,7.026s4.657-7.026,4.657-7.026"/>
	<path fill="none" stroke="#F5A623" stroke-width="2" stroke-linecap="round" stroke-linejoin="round" stroke-miterlimit="10" d="
		M-768.921,42.043c0,3.752,0.629,7.902,3.804,7.421s4.918-7.712,4.918-7.712"/>
	<path fill="none" stroke="#F5A623" stroke-width="2" stroke-linecap="round" stroke-linejoin="round" stroke-miterlimit="10" d="
		M-786.351,60.562c0,4.628,11.95,7.701,21.289-1.532"/>
	<polyline fill="none" stroke="#F5A623" stroke-linecap="round" stroke-linejoin="round" stroke-miterlimit="10" points="
		-764.562,59.03 -764.562,64.337 -768.637,61.923 	"/>
	<path fill="none" stroke="#F5A623" stroke-linecap="round" stroke-linejoin="round" stroke-miterlimit="10" d="M-803.685,49.113
		c2.122-0.236,4.761,2.065,6.068,5.238"/>
	<path fill="none" stroke="#F5A623" stroke-linecap="round" stroke-linejoin="round" stroke-miterlimit="10" d="M-745.952,48.878
		c-1.051,0.263-4.18,1.811-5.431,5.941"/>
	<path fill="none" stroke="#F5A623" stroke-width="2" stroke-linecap="round" stroke-linejoin="round" stroke-miterlimit="10" d="
		M-791.759,37.141c1.918,0.479,6.354,0.426,9.15-0.613"/>
	<path fill="none" stroke="#F5A623" stroke-width="2" stroke-linecap="round" stroke-linejoin="round" stroke-miterlimit="10" d="
		M-759.845,37.432c-1.632-0.904-6.279-1.631-9.076-0.593"/>
	<path fill="none" stroke="#F5A623" stroke-linecap="round" stroke-linejoin="round" stroke-miterlimit="10" d="M-798.258,42.522
		c2.345-22.33,26.992-15.694,37.179-21.136"/>
	<path fill="none" stroke="#F5A623" stroke-linecap="round" stroke-linejoin="round" stroke-miterlimit="10" d="M-798.258,42.522
		c1.998-25.541,25.923-22.963,37.179-21.136"/>
	<path fill="none" stroke="#F5A623" stroke-linecap="round" stroke-linejoin="round" stroke-miterlimit="10" d="M-761.08,21.385
		c3.051,12.372,8.734,10.953,10.623,22.508"/>
	<path fill="none" stroke="#F5A623" stroke-width="2" stroke-linecap="round" stroke-linejoin="round" stroke-miterlimit="10" d="
		M-761.08,21.385c0.266-1.86,0.531-5.845-0.797-7.97"/>
	<path fill="none" stroke="#F5A623" stroke-width="2" stroke-linecap="round" stroke-linejoin="round" stroke-miterlimit="10" d="
		M-760.199,22.08c2.488-1.756,3.583-3.846,3.497-6.258"/>
	
		<line fill="none" stroke="#F5A623" stroke-linecap="round" stroke-linejoin="round" stroke-miterlimit="10" x1="-805.343" y1="21.248" x2="-806.39" y2="33.123"/>
	
		<line fill="none" stroke="#F5A623" stroke-linecap="round" stroke-linejoin="round" stroke-miterlimit="10" x1="-810.926" y1="23.69" x2="-801.156" y2="31.352"/>
	
		<line fill="none" stroke="#F5A623" stroke-linecap="round" stroke-linejoin="round" stroke-miterlimit="10" x1="-810.926" y1="29.994" x2="-802.203" y2="25.609"/>
	
		<line fill="none" stroke="#F5A623" stroke-linecap="round" stroke-linejoin="round" stroke-miterlimit="10" x1="-747.992" y1="21.522" x2="-739.444" y2="24.662"/>
	
		<line fill="none" stroke="#F5A623" stroke-linecap="round" stroke-linejoin="round" stroke-miterlimit="10" x1="-738.571" y1="19.27" x2="-747.992" y2="27.454"/>
	
		<line fill="none" stroke="#F5A623" stroke-linecap="round" stroke-linejoin="round" stroke-miterlimit="10" x1="-744.503" y1="16.835" x2="-741.886" y2="29.3"/>
	
		<line fill="none" stroke="#F5A623" stroke-linecap="round" stroke-linejoin="round" stroke-miterlimit="10" x1="-778.57" y1="4.407" x2="-770.232" y2="8.225"/>
	
		<line fill="none" stroke="#F5A623" stroke-linecap="round" stroke-linejoin="round" stroke-miterlimit="10" x1="-778.766" y1="8.898" x2="-769.334" y2="3.733"/>
	
		<line fill="none" stroke="#F5A623" stroke-linecap="round" stroke-linejoin="round" stroke-miterlimit="10" x1="-774.499" y1="1.038" x2="-774.948" y2="11.593"/>
	
		<line fill="none" stroke="#F5A623" stroke-linecap="round" stroke-linejoin="round" stroke-miterlimit="10" x1="-751.236" y1="73.78" x2="-741.917" y2="70.091"/>
	<path fill="none" stroke="#F5A623" stroke-linecap="round" stroke-linejoin="round" stroke-miterlimit="10" d="M-751.236,67.978"/>
	
		<line fill="none" stroke="#F5A623" stroke-linecap="round" stroke-linejoin="round" stroke-miterlimit="10" x1="-751.236" y1="68.926" x2="-743.276" y2="75.138"/>
	
		<line fill="none" stroke="#F5A623" stroke-linecap="round" stroke-linejoin="round" stroke-miterlimit="10" x1="-748.13" y1="77.08" x2="-746.771" y2="67.179"/>
	
		<line fill="none" stroke="#F5A623" stroke-linecap="round" stroke-linejoin="round" stroke-miterlimit="10" x1="-798.806" y1="64.435" x2="-807.285" y2="68.978"/>
	
		<line fill="none" stroke="#F5A623" stroke-linecap="round" stroke-linejoin="round" stroke-miterlimit="10" x1="-798.806" y1="69.288" x2="-806.088" y2="63.789"/>
	
		<line fill="none" stroke="#F5A623" stroke-linecap="round" stroke-linejoin="round" stroke-miterlimit="10" x1="-801.913" y1="61.134" x2="-803.271" y2="71.035"/>
</g>
<g>
	<path fill="none" stroke="#F5A623" stroke-width="2" stroke-linecap="round" stroke-linejoin="round" stroke-miterlimit="10" d="
		M-1032.51,74.505c14.211,0,24-12.393,24-29s-9.629-29-24-29c-14.37,0-24,11.913-24,29S-1046.721,74.505-1032.51,74.505z"/>
	<path fill="none" stroke="#F5A623" stroke-width="2" stroke-linecap="round" stroke-linejoin="round" stroke-miterlimit="10" d="
		M-1056.368,41.984c1.472-16.465,26.463-7.702,37.179-21.136"/>
	<path fill="none" stroke="#F5A623" stroke-width="2" stroke-linecap="round" stroke-linejoin="round" stroke-miterlimit="10" d="
		M-1019.19,20.848c-3.2,12.524,9.112,16.047,10.623,22.508"/>
	<path fill="none" stroke="#F5A623" stroke-width="2" stroke-linecap="round" stroke-linejoin="round" stroke-miterlimit="10" d="
		M-1008.566,47.564c1.306-2.448,2.992-3.009,4.298-3.009c1.306,0,3.555,0.545,3.268,4.726c-0.306,4.457-4.94,8.445-9.51,8.445"/>
	<path fill="none" stroke="#F5A623" stroke-width="2" stroke-linecap="round" stroke-linejoin="round" stroke-miterlimit="10" d="
		M-1056.462,47.542c-1.306-2.448-2.911-3.028-4.216-3.028c-1.306,0-3.993,0.796-3.993,4.74s5.206,8.423,9.776,8.423"/>
	<path fill="none" stroke="#F5A623" stroke-width="2" stroke-linecap="round" stroke-linejoin="round" stroke-miterlimit="10" d="
		M-1035.616,42.505c0,0-0.766,7.94-2.894,14.239c0,0,4.52-1.395,6.374-2.463"/>
	<path fill="none" stroke="#F5A623" stroke-width="2" stroke-linecap="round" stroke-linejoin="round" stroke-miterlimit="10" d="
		M-1048.948,41.719c0,3.313,0.586,6.629,3.39,6.204s4.112-6.204,4.112-6.204"/>
	<path fill="none" stroke="#F5A623" stroke-width="2" stroke-linecap="round" stroke-linejoin="round" stroke-miterlimit="10" d="
		M-1026.852,41.924c0,3.313,0.556,6.977,3.359,6.553c2.803-0.425,4.342-6.809,4.342-6.809"/>
	<path fill="none" stroke="#F5A623" stroke-width="2" stroke-linecap="round" stroke-linejoin="round" stroke-miterlimit="10" d="
		M-1044.46,60.024c0,4.628,11.95,7.701,21.289-1.532"/>
	
		<polyline fill="none" stroke="#F5A623" stroke-width="2" stroke-linecap="round" stroke-linejoin="round" stroke-miterlimit="10" points="
		-1023.172,58.493 -1023.172,64.799 -1027.84,62.034 	"/>
	<path fill="none" stroke="#F5A623" stroke-linecap="round" stroke-linejoin="round" stroke-miterlimit="10" d="M-1061.795,48.576
		c2.122-0.236,4.761,2.065,6.068,5.238"/>
	<path fill="none" stroke="#F5A623" stroke-linecap="round" stroke-linejoin="round" stroke-miterlimit="10" d="M-1004.061,48.34
		c-1.051,0.263-4.18,1.811-5.431,5.941"/>
	<path fill="none" stroke="#F5A623" stroke-width="2" stroke-linecap="round" stroke-linejoin="round" stroke-miterlimit="10" d="
		M-1048.869,36.581c1.753,0.438,5.807,0.389,8.363-0.56"/>
	<path fill="none" stroke="#F5A623" stroke-width="2" stroke-linecap="round" stroke-linejoin="round" stroke-miterlimit="10" d="
		M-1017.702,36.847c-1.492-0.826-5.739-1.491-8.295-0.542"/>
	<path fill="none" stroke="#F5A623" stroke-linecap="round" stroke-linejoin="round" stroke-miterlimit="10" d="M-1056.368,41.984
		c2.345-22.33,26.992-15.694,37.179-21.136"/>
	<path fill="none" stroke="#F5A623" stroke-linecap="round" stroke-linejoin="round" stroke-miterlimit="10" d="M-1056.368,41.984
		c1.998-25.541,25.923-22.963,37.179-21.136"/>
	<path fill="none" stroke="#F5A623" stroke-linecap="round" stroke-linejoin="round" stroke-miterlimit="10" d="M-1019.19,20.848
		c3.051,12.372,8.734,10.953,10.623,22.508"/>
	<path fill="none" stroke="#F5A623" stroke-width="2" stroke-linecap="round" stroke-linejoin="round" stroke-miterlimit="10" d="
		M-1019.19,20.848c0.266-1.86,0.531-5.845-0.797-7.97"/>
	<path fill="none" stroke="#F5A623" stroke-width="2" stroke-linecap="round" stroke-linejoin="round" stroke-miterlimit="10" d="
		M-1018.309,21.542c2.488-1.756,3.583-3.846,3.497-6.258"/>
	
		<line fill="none" stroke="#F5A623" stroke-linecap="round" stroke-linejoin="round" stroke-miterlimit="10" x1="-1063.453" y1="20.71" x2="-1064.5" y2="32.585"/>
	
		<line fill="none" stroke="#F5A623" stroke-linecap="round" stroke-linejoin="round" stroke-miterlimit="10" x1="-1069.036" y1="23.153" x2="-1059.266" y2="30.814"/>
	
		<line fill="none" stroke="#F5A623" stroke-linecap="round" stroke-linejoin="round" stroke-miterlimit="10" x1="-1069.036" y1="29.456" x2="-1060.313" y2="25.072"/>
	
		<line fill="none" stroke="#F5A623" stroke-linecap="round" stroke-linejoin="round" stroke-miterlimit="10" x1="-1006.102" y1="20.984" x2="-997.553" y2="24.125"/>
	
		<line fill="none" stroke="#F5A623" stroke-linecap="round" stroke-linejoin="round" stroke-miterlimit="10" x1="-996.681" y1="18.732" x2="-1006.102" y2="26.916"/>
	
		<line fill="none" stroke="#F5A623" stroke-linecap="round" stroke-linejoin="round" stroke-miterlimit="10" x1="-1002.613" y1="16.298" x2="-999.996" y2="28.762"/>
	
		<line fill="none" stroke="#F5A623" stroke-linecap="round" stroke-linejoin="round" stroke-miterlimit="10" x1="-1036.679" y1="3.869" x2="-1028.342" y2="7.687"/>
	
		<line fill="none" stroke="#F5A623" stroke-linecap="round" stroke-linejoin="round" stroke-miterlimit="10" x1="-1036.876" y1="8.361" x2="-1027.443" y2="3.195"/>
	
		<line fill="none" stroke="#F5A623" stroke-linecap="round" stroke-linejoin="round" stroke-miterlimit="10" x1="-1032.609" y1="0.5" x2="-1033.058" y2="11.056"/>
	
		<line fill="none" stroke="#F5A623" stroke-linecap="round" stroke-linejoin="round" stroke-miterlimit="10" x1="-1009.346" y1="73.242" x2="-1000.027" y2="69.553"/>
	<path fill="none" stroke="#F5A623" stroke-linecap="round" stroke-linejoin="round" stroke-miterlimit="10" d="M-1009.346,67.44"/>
	
		<line fill="none" stroke="#F5A623" stroke-linecap="round" stroke-linejoin="round" stroke-miterlimit="10" x1="-1009.346" y1="68.388" x2="-1001.386" y2="74.601"/>
	
		<line fill="none" stroke="#F5A623" stroke-linecap="round" stroke-linejoin="round" stroke-miterlimit="10" x1="-1006.239" y1="76.542" x2="-1004.88" y2="66.641"/>
	
		<line fill="none" stroke="#F5A623" stroke-linecap="round" stroke-linejoin="round" stroke-miterlimit="10" x1="-1056.916" y1="63.897" x2="-1065.395" y2="68.441"/>
	
		<line fill="none" stroke="#F5A623" stroke-linecap="round" stroke-linejoin="round" stroke-miterlimit="10" x1="-1056.916" y1="68.75" x2="-1064.198" y2="63.251"/>
	
		<line fill="none" stroke="#F5A623" stroke-linecap="round" stroke-linejoin="round" stroke-miterlimit="10" x1="-1060.022" y1="60.597" x2="-1061.381" y2="70.498"/>
</g>
<g>
	<path fill="none" stroke="#D8D8D8" stroke-width="2" stroke-linecap="round" stroke-linejoin="round" stroke-miterlimit="10" d="
		M-1126.219,74.505c14.211,0,24-12.393,24-29s-9.629-29-24-29s-24,11.913-24,29S-1140.43,74.505-1126.219,74.505z"/>
	<path fill="none" stroke="#D8D8D8" stroke-width="2" stroke-linecap="round" stroke-linejoin="round" stroke-miterlimit="10" d="
		M-1150.077,41.984c1.472-16.465,26.463-7.702,37.179-21.136"/>
	<path fill="none" stroke="#D8D8D8" stroke-width="2" stroke-linecap="round" stroke-linejoin="round" stroke-miterlimit="10" d="
		M-1112.899,20.848c-3.2,12.524,9.112,16.047,10.623,22.508"/>
	<path fill="none" stroke="#D8D8D8" stroke-width="2" stroke-linecap="round" stroke-linejoin="round" stroke-miterlimit="10" d="
		M-1102.275,47.564c1.306-2.448,2.992-3.009,4.298-3.009s3.555,0.545,3.268,4.726c-0.306,4.457-4.94,8.445-9.51,8.445"/>
	<path fill="none" stroke="#D8D8D8" stroke-width="2" stroke-linecap="round" stroke-linejoin="round" stroke-miterlimit="10" d="
		M-1150.171,47.542c-1.306-2.448-2.911-3.028-4.216-3.028c-1.306,0-3.994,0.796-3.994,4.74s5.206,8.423,9.776,8.423"/>
	<path fill="none" stroke="#D8D8D8" stroke-width="2" stroke-linecap="round" stroke-linejoin="round" stroke-miterlimit="10" d="
		M-1129.325,42.505c0,0-0.766,7.94-2.894,14.239c0,0,4.52-1.395,6.374-2.463"/>
	<path fill="none" stroke="#D8D8D8" stroke-width="2" stroke-linecap="round" stroke-linejoin="round" stroke-miterlimit="10" d="
		M-1142.657,41.719c0,3.313,0.586,6.629,3.39,6.204s4.112-6.204,4.112-6.204"/>
	<path fill="none" stroke="#D8D8D8" stroke-width="2" stroke-linecap="round" stroke-linejoin="round" stroke-miterlimit="10" d="
		M-1120.561,41.924c0,3.313,0.556,6.977,3.359,6.553c2.804-0.425,4.342-6.809,4.342-6.809"/>
	<path fill="none" stroke="#D8D8D8" stroke-width="2" stroke-linecap="round" stroke-linejoin="round" stroke-miterlimit="10" d="
		M-1138.17,60.024c0,4.628,11.95,7.701,21.289-1.532"/>
	
		<polyline fill="none" stroke="#D8D8D8" stroke-width="2" stroke-linecap="round" stroke-linejoin="round" stroke-miterlimit="10" points="
		-1116.881,58.493 -1116.881,64.799 -1121.549,62.034 	"/>
	<path fill="none" stroke="#D8D8D8" stroke-linecap="round" stroke-linejoin="round" stroke-miterlimit="10" d="M-1155.504,48.576
		c2.122-0.236,4.761,2.065,6.068,5.238"/>
	<path fill="none" stroke="#D8D8D8" stroke-linecap="round" stroke-linejoin="round" stroke-miterlimit="10" d="M-1097.771,48.34
		c-1.051,0.263-4.18,1.811-5.431,5.941"/>
	<path fill="none" stroke="#D8D8D8" stroke-width="2" stroke-linecap="round" stroke-linejoin="round" stroke-miterlimit="10" d="
		M-1142.578,36.581c1.753,0.438,5.807,0.389,8.363-0.56"/>
	<path fill="none" stroke="#D8D8D8" stroke-width="2" stroke-linecap="round" stroke-linejoin="round" stroke-miterlimit="10" d="
		M-1111.411,36.847c-1.492-0.826-5.739-1.491-8.295-0.542"/>
	<path fill="none" stroke="#D8D8D8" stroke-linecap="round" stroke-linejoin="round" stroke-miterlimit="10" d="M-1150.077,41.984
		c2.345-22.33,26.992-15.694,37.179-21.136"/>
	<path fill="none" stroke="#D8D8D8" stroke-linecap="round" stroke-linejoin="round" stroke-miterlimit="10" d="M-1150.077,41.984
		c1.998-25.541,25.923-22.963,37.179-21.136"/>
	<path fill="none" stroke="#D8D8D8" stroke-linecap="round" stroke-linejoin="round" stroke-miterlimit="10" d="M-1112.899,20.848
		c3.051,12.372,8.734,10.953,10.623,22.508"/>
	<path fill="none" stroke="#D8D8D8" stroke-width="2" stroke-linecap="round" stroke-linejoin="round" stroke-miterlimit="10" d="
		M-1112.899,20.848c0.266-1.86,0.531-5.845-0.797-7.97"/>
	<path fill="none" stroke="#D8D8D8" stroke-width="2" stroke-linecap="round" stroke-linejoin="round" stroke-miterlimit="10" d="
		M-1112.018,21.542c2.488-1.756,3.583-3.846,3.497-6.258"/>
	
		<line fill="none" stroke="#D8D8D8" stroke-linecap="round" stroke-linejoin="round" stroke-miterlimit="10" x1="-1157.162" y1="20.71" x2="-1158.209" y2="32.585"/>
	
		<line fill="none" stroke="#D8D8D8" stroke-linecap="round" stroke-linejoin="round" stroke-miterlimit="10" x1="-1162.745" y1="23.153" x2="-1152.975" y2="30.814"/>
	
		<line fill="none" stroke="#D8D8D8" stroke-linecap="round" stroke-linejoin="round" stroke-miterlimit="10" x1="-1162.745" y1="29.456" x2="-1154.022" y2="25.072"/>
	
		<line fill="none" stroke="#D8D8D8" stroke-linecap="round" stroke-linejoin="round" stroke-miterlimit="10" x1="-1099.811" y1="20.984" x2="-1091.262" y2="24.125"/>
	
		<line fill="none" stroke="#D8D8D8" stroke-linecap="round" stroke-linejoin="round" stroke-miterlimit="10" x1="-1090.39" y1="18.732" x2="-1099.811" y2="26.916"/>
	
		<line fill="none" stroke="#D8D8D8" stroke-linecap="round" stroke-linejoin="round" stroke-miterlimit="10" x1="-1096.322" y1="16.298" x2="-1093.705" y2="28.762"/>
	
		<line fill="none" stroke="#D8D8D8" stroke-linecap="round" stroke-linejoin="round" stroke-miterlimit="10" x1="-1130.389" y1="3.869" x2="-1122.051" y2="7.687"/>
	
		<line fill="none" stroke="#D8D8D8" stroke-linecap="round" stroke-linejoin="round" stroke-miterlimit="10" x1="-1130.585" y1="8.361" x2="-1121.152" y2="3.195"/>
	
		<line fill="none" stroke="#D8D8D8" stroke-linecap="round" stroke-linejoin="round" stroke-miterlimit="10" x1="-1126.318" y1="0.5" x2="-1126.767" y2="11.056"/>
	
		<line fill="none" stroke="#D8D8D8" stroke-linecap="round" stroke-linejoin="round" stroke-miterlimit="10" x1="-1103.055" y1="73.242" x2="-1093.736" y2="69.553"/>
	<path fill="none" stroke="#D8D8D8" stroke-linecap="round" stroke-linejoin="round" stroke-miterlimit="10" d="M-1103.055,67.44"/>
	
		<line fill="none" stroke="#D8D8D8" stroke-linecap="round" stroke-linejoin="round" stroke-miterlimit="10" x1="-1103.055" y1="68.388" x2="-1095.095" y2="74.601"/>
	
		<line fill="none" stroke="#D8D8D8" stroke-linecap="round" stroke-linejoin="round" stroke-miterlimit="10" x1="-1099.949" y1="76.542" x2="-1098.59" y2="66.641"/>
	
		<line fill="none" stroke="#D8D8D8" stroke-linecap="round" stroke-linejoin="round" stroke-miterlimit="10" x1="-1150.625" y1="63.897" x2="-1159.104" y2="68.441"/>
	
		<line fill="none" stroke="#D8D8D8" stroke-linecap="round" stroke-linejoin="round" stroke-miterlimit="10" x1="-1150.625" y1="68.75" x2="-1157.907" y2="63.251"/>
	
		<line fill="none" stroke="#D8D8D8" stroke-linecap="round" stroke-linejoin="round" stroke-miterlimit="10" x1="-1153.731" y1="60.597" x2="-1155.09" y2="70.498"/>
</g>
<path fill="none" stroke="#D8D8D8" stroke-width="2" stroke-linecap="round" stroke-linejoin="round" stroke-miterlimit="10" d="
	M40.366,77.564c14.951,0,25.25-13.038,25.25-30.51s-10.131-30.51-25.25-30.51s-25.25,12.533-25.25,30.51
	S25.415,77.564,40.366,77.564z"/>
<path fill="none" stroke="#D8D8D8" stroke-width="2" stroke-linecap="round" stroke-linejoin="round" stroke-miterlimit="10" d="
	M15.266,43.35c1.549-17.323,27.841-8.103,39.115-22.237"/>
<path fill="none" stroke="#D8D8D8" stroke-width="2" stroke-linecap="round" stroke-linejoin="round" stroke-miterlimit="10" d="
	M54.38,21.113c-3.367,13.177,9.587,16.882,11.177,23.68"/>
<path fill="none" stroke="#D8D8D8" stroke-width="2" stroke-linecap="round" stroke-linejoin="round" stroke-miterlimit="10" d="
	M65.557,49.22c1.374-2.576,3.148-3.166,4.522-3.166s3.74,0.573,3.438,4.972c-0.322,4.689-5.197,8.884-10.005,8.884"/>
<path fill="none" stroke="#D8D8D8" stroke-width="2" stroke-linecap="round" stroke-linejoin="round" stroke-miterlimit="10" d="
	M15.167,49.197c-1.374-2.576-3.062-3.186-4.436-3.186S6.53,46.849,6.53,50.997s5.477,8.861,10.285,8.861"/>
<path fill="none" stroke="#D8D8D8" stroke-width="2" stroke-linecap="round" stroke-linejoin="round" stroke-miterlimit="10" d="
	M37.098,43.898c0,0-0.806,8.353-3.045,14.98c0,0,4.755-1.468,6.705-2.591"/>
<path fill="none" stroke="#D8D8D8" stroke-width="2" stroke-linecap="round" stroke-linejoin="round" stroke-miterlimit="10" d="
	M23.072,43.071c0,3.486,0.617,6.974,3.566,6.527s4.327-6.527,4.327-6.527"/>
<path fill="none" stroke="#D8D8D8" stroke-width="2" stroke-linecap="round" stroke-linejoin="round" stroke-miterlimit="10" d="
	M46.319,43.287c0,3.486,0.585,7.341,3.534,6.894s4.568-7.164,4.568-7.164"/>
<path fill="none" stroke="#D8D8D8" stroke-width="2" stroke-linecap="round" stroke-linejoin="round" stroke-miterlimit="10" d="
	M27.793,62.33c0,4.869,12.572,8.102,22.397-1.611"/>
<polyline fill="none" stroke="#D8D8D8" stroke-width="2" stroke-linecap="round" stroke-linejoin="round" stroke-miterlimit="10" points="
	50.191,60.718 50.191,67.353 45.279,64.444 "/>
<path fill="none" stroke="#D8D8D8" stroke-linecap="round" stroke-linejoin="round" stroke-miterlimit="10" d="M9.557,50.285
	c2.233-0.248,5.009,2.173,6.384,5.511"/>
<path fill="none" stroke="#D8D8D8" stroke-linecap="round" stroke-linejoin="round" stroke-miterlimit="10" d="M70.296,50.037
	c-1.106,0.276-4.398,1.906-5.714,6.25"/>
<path fill="none" stroke="#D8D8D8" stroke-width="2" stroke-linecap="round" stroke-linejoin="round" stroke-miterlimit="10" d="
	M23.156,37.666c1.844,0.461,6.109,0.409,8.798-0.59"/>
<path fill="none" stroke="#D8D8D8" stroke-width="2" stroke-linecap="round" stroke-linejoin="round" stroke-miterlimit="10" d="
	M55.946,37.945c-1.569-0.869-6.038-1.569-8.727-0.57"/>
<path fill="none" stroke="#D8D8D8" stroke-linecap="round" stroke-linejoin="round" stroke-miterlimit="10" d="M15.266,43.35
	c2.467-23.493,28.397-16.511,39.115-22.237"/>
<path fill="none" stroke="#D8D8D8" stroke-linecap="round" stroke-linejoin="round" stroke-miterlimit="10" d="M15.266,43.35
	c2.102-26.871,27.273-24.158,39.115-22.237"/>
<path fill="none" stroke="#D8D8D8" stroke-linecap="round" stroke-linejoin="round" stroke-miterlimit="10" d="M54.38,21.113
	c3.21,13.016,9.189,11.523,11.177,23.68"/>
<path fill="none" stroke="#D8D8D8" stroke-width="2" stroke-linecap="round" stroke-linejoin="round" stroke-miterlimit="10" d="
	M54.38,21.113c0.28-1.957,0.559-6.149-0.839-8.385"/>
<path fill="none" stroke="#D8D8D8" stroke-width="2" stroke-linecap="round" stroke-linejoin="round" stroke-miterlimit="10" d="
	M55.307,21.843c2.617-1.847,3.769-4.047,3.68-6.584"/>
<g>
	
		<line fill="none" stroke="#D8D8D8" stroke-linecap="round" stroke-linejoin="round" stroke-miterlimit="10" x1="6.373" y1="20.968" x2="5.272" y2="33.462"/>
	
		<line fill="none" stroke="#D8D8D8" stroke-linecap="round" stroke-linejoin="round" stroke-miterlimit="10" x1="0.5" y1="23.538" x2="10.778" y2="31.598"/>
	
		<line fill="none" stroke="#D8D8D8" stroke-linecap="round" stroke-linejoin="round" stroke-miterlimit="10" x1="0.5" y1="30.17" x2="9.677" y2="25.557"/>
</g>
<g>
	
		<line fill="none" stroke="#D8D8D8" stroke-linecap="round" stroke-linejoin="round" stroke-miterlimit="10" x1="69.589" y1="23.361" x2="78.582" y2="26.665"/>
	
		<line fill="none" stroke="#D8D8D8" stroke-linecap="round" stroke-linejoin="round" stroke-miterlimit="10" x1="79.5" y1="20.992" x2="69.589" y2="29.601"/>
	
		<line fill="none" stroke="#D8D8D8" stroke-linecap="round" stroke-linejoin="round" stroke-miterlimit="10" x1="73.26" y1="18.43" x2="76.013" y2="31.544"/>
</g>
<g>
	
		<line fill="none" stroke="#D8D8D8" stroke-linecap="round" stroke-linejoin="round" stroke-miterlimit="10" x1="29.667" y1="4.045" x2="38.439" y2="8.061"/>
	
		<line fill="none" stroke="#D8D8D8" stroke-linecap="round" stroke-linejoin="round" stroke-miterlimit="10" x1="29.46" y1="8.77" x2="39.384" y2="3.336"/>
	
		<line fill="none" stroke="#D8D8D8" stroke-linecap="round" stroke-linejoin="round" stroke-miterlimit="10" x1="33.949" y1="0.5" x2="33.477" y2="11.606"/>
</g>
<path fill="none" stroke="#D8D8D8" stroke-linecap="round" stroke-linejoin="round" stroke-miterlimit="10" d="M64.737,80"/>
<g>
	
		<line fill="none" stroke="#D8D8D8" stroke-linecap="round" stroke-linejoin="round" stroke-miterlimit="10" x1="64.737" y1="76.028" x2="74.541" y2="72.147"/>
	
		<line fill="none" stroke="#D8D8D8" stroke-linecap="round" stroke-linejoin="round" stroke-miterlimit="10" x1="64.737" y1="70.922" x2="73.111" y2="77.458"/>
	
		<line fill="none" stroke="#D8D8D8" stroke-linecap="round" stroke-linejoin="round" stroke-miterlimit="10" x1="68.005" y1="79.5" x2="69.435" y2="69.084"/>
</g>
<g>
	
		<line fill="none" stroke="#D8D8D8" stroke-linecap="round" stroke-linejoin="round" stroke-miterlimit="10" x1="14.689" y1="66.404" x2="5.768" y2="71.184"/>
	
		<line fill="none" stroke="#D8D8D8" stroke-linecap="round" stroke-linejoin="round" stroke-miterlimit="10" x1="14.689" y1="71.51" x2="7.028" y2="65.724"/>
	
		<line fill="none" stroke="#D8D8D8" stroke-linecap="round" stroke-linejoin="round" stroke-miterlimit="10" x1="11.421" y1="62.932" x2="9.991" y2="73.348"/>
</g>
</svg>
