<?xml version="1.0" encoding="utf-8"?>
<!-- Generator: Adobe Illustrator 17.0.0, SVG Export Plug-In . SVG Version: 6.00 Build 0)  -->
<!DOCTYPE svg PUBLIC "-//W3C//DTD SVG 1.1//EN" "http://www.w3.org/Graphics/SVG/1.1/DTD/svg11.dtd">
<svg version="1.1" id="Layer_1" xmlns="http://www.w3.org/2000/svg" xmlns:xlink="http://www.w3.org/1999/xlink" x="0px" y="0px"
	 width="80px" height="80px" viewBox="0 0 80 80" enable-background="new 0 0 80 80" xml:space="preserve">
<path fill="none" stroke="#FFA500" stroke-width="2" stroke-linecap="round" stroke-linejoin="round" stroke-miterlimit="10" d="
	M40.366,77.564c14.951,0,25.25-13.038,25.25-30.51s-10.131-30.51-25.25-30.51s-25.25,12.533-25.25,30.51
	S25.415,77.564,40.366,77.564z"/>
<path fill="none" stroke="#FFA500" stroke-width="2" stroke-linecap="round" stroke-linejoin="round" stroke-miterlimit="10" d="
	M15.266,43.35c1.549-17.323,27.841-8.103,39.115-22.237"/>
<path fill="none" stroke="#FFA500" stroke-width="2" stroke-linecap="round" stroke-linejoin="round" stroke-miterlimit="10" d="
	M54.38,21.113c-3.367,13.177,9.587,16.882,11.177,23.68"/>
<path fill="none" stroke="#FFA500" stroke-width="2" stroke-linecap="round" stroke-linejoin="round" stroke-miterlimit="10" d="
	M65.557,49.22c1.374-2.576,3.148-3.166,4.522-3.166c1.374,0,3.74,0.573,3.438,4.972c-0.322,4.689-5.197,8.884-10.005,8.884"/>
<path fill="none" stroke="#FFA500" stroke-width="2" stroke-linecap="round" stroke-linejoin="round" stroke-miterlimit="10" d="
	M15.167,49.197c-1.374-2.576-3.062-3.186-4.436-3.186s-4.201,0.838-4.201,4.986s5.477,8.861,10.285,8.861"/>
<path fill="none" stroke="#FFA500" stroke-width="2" stroke-linecap="round" stroke-linejoin="round" stroke-miterlimit="10" d="
	M37.098,43.898c0,0-0.806,8.353-3.045,14.98c0,0,4.755-1.468,6.705-2.591"/>
<path fill="none" stroke="#FFA500" stroke-width="2" stroke-linecap="round" stroke-linejoin="round" stroke-miterlimit="10" d="
	M23.072,43.071c0,3.486,0.617,6.974,3.566,6.527c2.949-0.447,4.327-6.527,4.327-6.527"/>
<path fill="none" stroke="#FFA500" stroke-width="2" stroke-linecap="round" stroke-linejoin="round" stroke-miterlimit="10" d="
	M46.319,43.287c0,3.486,0.585,7.341,3.534,6.894c2.949-0.447,4.568-7.164,4.568-7.164"/>
<path fill="none" stroke="#FFA500" stroke-width="2" stroke-linecap="round" stroke-linejoin="round" stroke-miterlimit="10" d="
	M27.793,62.33c0,4.869,12.572,8.102,22.397-1.611"/>
<polyline fill="none" stroke="#FFA500" stroke-width="2" stroke-linecap="round" stroke-linejoin="round" stroke-miterlimit="10" points="
	50.191,60.718 50.191,67.353 45.279,64.444 "/>
<path fill="none" stroke="#FFA500" stroke-linecap="round" stroke-linejoin="round" stroke-miterlimit="10" d="M9.557,50.285
	c2.233-0.248,5.009,2.173,6.384,5.511"/>
<path fill="none" stroke="#FFA500" stroke-linecap="round" stroke-linejoin="round" stroke-miterlimit="10" d="M70.296,50.037
	c-1.106,0.276-4.398,1.906-5.714,6.25"/>
<path fill="none" stroke="#FFA500" stroke-width="2" stroke-linecap="round" stroke-linejoin="round" stroke-miterlimit="10" d="
	M23.156,37.666c1.844,0.461,6.109,0.409,8.798-0.59"/>
<path fill="none" stroke="#FFA500" stroke-width="2" stroke-linecap="round" stroke-linejoin="round" stroke-miterlimit="10" d="
	M55.946,37.945c-1.569-0.869-6.038-1.569-8.727-0.57"/>
<path fill="none" stroke="#FFA500" stroke-linecap="round" stroke-linejoin="round" stroke-miterlimit="10" d="M15.266,43.35
	c2.467-23.493,28.397-16.511,39.115-22.237"/>
<path fill="none" stroke="#FFA500" stroke-linecap="round" stroke-linejoin="round" stroke-miterlimit="10" d="M15.266,43.35
	c2.102-26.871,27.273-24.158,39.115-22.237"/>
<path fill="none" stroke="#FFA500" stroke-linecap="round" stroke-linejoin="round" stroke-miterlimit="10" d="M54.38,21.113
	c3.21,13.016,9.189,11.523,11.177,23.68"/>
<path fill="none" stroke="#FFA500" stroke-width="2" stroke-linecap="round" stroke-linejoin="round" stroke-miterlimit="10" d="
	M54.38,21.113c0.28-1.957,0.559-6.149-0.839-8.385"/>
<path fill="none" stroke="#FFA500" stroke-width="2" stroke-linecap="round" stroke-linejoin="round" stroke-miterlimit="10" d="
	M55.307,21.843c2.617-1.847,3.769-4.047,3.68-6.584"/>
<g>
	
		<line fill="none" stroke="#FFA500" stroke-linecap="round" stroke-linejoin="round" stroke-miterlimit="10" x1="6.373" y1="20.968" x2="5.272" y2="33.462"/>
	
		<line fill="none" stroke="#FFA500" stroke-linecap="round" stroke-linejoin="round" stroke-miterlimit="10" x1="0.5" y1="23.538" x2="10.778" y2="31.598"/>
	
		<line fill="none" stroke="#FFA500" stroke-linecap="round" stroke-linejoin="round" stroke-miterlimit="10" x1="0.5" y1="30.17" x2="9.677" y2="25.557"/>
</g>
<g>
	
		<line fill="none" stroke="#FFA500" stroke-linecap="round" stroke-linejoin="round" stroke-miterlimit="10" x1="69.589" y1="23.361" x2="78.582" y2="26.665"/>
	
		<line fill="none" stroke="#FFA500" stroke-linecap="round" stroke-linejoin="round" stroke-miterlimit="10" x1="79.5" y1="20.992" x2="69.589" y2="29.601"/>
	
		<line fill="none" stroke="#FFA500" stroke-linecap="round" stroke-linejoin="round" stroke-miterlimit="10" x1="73.26" y1="18.43" x2="76.013" y2="31.544"/>
</g>
<g>
	
		<line fill="none" stroke="#FFA500" stroke-linecap="round" stroke-linejoin="round" stroke-miterlimit="10" x1="29.667" y1="4.045" x2="38.439" y2="8.061"/>
	
		<line fill="none" stroke="#FFA500" stroke-linecap="round" stroke-linejoin="round" stroke-miterlimit="10" x1="29.46" y1="8.77" x2="39.384" y2="3.336"/>
	
		<line fill="none" stroke="#FFA500" stroke-linecap="round" stroke-linejoin="round" stroke-miterlimit="10" x1="33.949" y1="0.5" x2="33.477" y2="11.606"/>
</g>
<path fill="none" stroke="#FFA500" stroke-linecap="round" stroke-linejoin="round" stroke-miterlimit="10" d="M64.737,80"/>
<g>
	
		<line fill="none" stroke="#FFA500" stroke-linecap="round" stroke-linejoin="round" stroke-miterlimit="10" x1="64.737" y1="76.028" x2="74.541" y2="72.147"/>
	
		<line fill="none" stroke="#FFA500" stroke-linecap="round" stroke-linejoin="round" stroke-miterlimit="10" x1="64.737" y1="70.922" x2="73.111" y2="77.458"/>
	
		<line fill="none" stroke="#FFA500" stroke-linecap="round" stroke-linejoin="round" stroke-miterlimit="10" x1="68.005" y1="79.5" x2="69.435" y2="69.084"/>
</g>
<g>
	
		<line fill="none" stroke="#FFA500" stroke-linecap="round" stroke-linejoin="round" stroke-miterlimit="10" x1="14.689" y1="66.404" x2="5.768" y2="71.184"/>
	
		<line fill="none" stroke="#FFA500" stroke-linecap="round" stroke-linejoin="round" stroke-miterlimit="10" x1="14.689" y1="71.51" x2="7.028" y2="65.724"/>
	
		<line fill="none" stroke="#FFA500" stroke-linecap="round" stroke-linejoin="round" stroke-miterlimit="10" x1="11.421" y1="62.932" x2="9.991" y2="73.348"/>
</g>
</svg>
