<?xml version="1.0" encoding="utf-8"?>
<!-- Generator: Adobe Illustrator 17.0.0, SVG Export Plug-In . SVG Version: 6.00 Build 0)  -->
<!DOCTYPE svg PUBLIC "-//W3C//DTD SVG 1.1//EN" "http://www.w3.org/Graphics/SVG/1.1/DTD/svg11.dtd">
<svg version="1.1" id="Layer_1" xmlns="http://www.w3.org/2000/svg" xmlns:xlink="http://www.w3.org/1999/xlink" x="0px" y="0px"
	 width="44px" height="5px" viewBox="0 0 44 5" enable-background="new 0 0 44 5" xml:space="preserve">
<path fill="none" stroke="#FFA500" stroke-width="1.5" stroke-linecap="round" stroke-miterlimit="10" d="M1.521,3.44
	c1.162,0,2.103-0.489,3.033-0.971c0.881-0.458,1.774-0.92,2.819-0.92c1.104,0,1.999,0.477,2.887,0.936
	c0.902,0.467,1.817,0.954,2.964,0.954c1.162,0,2.104-0.487,3.033-0.97c0.88-0.458,1.774-0.92,2.818-0.92
	c1.104,0,2.002,0.463,2.887,0.936c0.896,0.479,1.818,0.954,2.964,0.954c1.162,0,2.103-0.488,3.033-0.97
	c0.881-0.457,1.774-0.92,2.818-0.92c1.104,0,2.174,0.568,2.887,0.936c0.902,0.466,1.818,0.954,2.964,0.954
	c1.162,0,2.104-0.487,3.033-0.97c0.881-0.458,1.774-0.92,2.819-0.92"/>
</svg>
