<svg xmlns="http://www.w3.org/2000/svg" version="1.1" viewBox="0 0 35 5" width="34px" overflow="visible">
<path fill="none" stroke="#FFA500" stroke-width="2" stroke-linecap="round" stroke-miterlimit="10" d="M1.52,3.499c1.006,0,1.842-0.503,2.667-1
	C5.012,2.003,5.848,1.5,6.854,1.5c1.025,0,1.852,0.503,2.667,0.999c0.815,0.497,1.641,0.999,2.667,0.999
	c1.006,0,1.842-0.503,2.667-0.999c0.825-0.497,1.661-0.999,2.667-0.999c1.025,0,1.852,0.503,2.667,0.999s1.641,0.999,2.667,0.999
	c1.006,0,1.842-0.503,2.667-0.999c0.825-0.497,1.661-0.999,2.667-0.999c1.026,0,1.852,0.503,2.667,0.999
	C31.668,2.997,32.495,3.5,33.52,3.5"/>
</svg>
