<svg id="logo" width="3" height="64" xmlns="http://www.w3.org/2000/svg" version="1.1" viewBox="0 0 3 64">
<path fill="none" stroke="#9B9B9B" stroke-linecap="round" stroke-miterlimit="10" d="M0.501,0.914c0,0.977,0.489,1.789,0.971,2.591
	c0.482,0.801,0.97,1.614,0.97,2.591c0,0.996-0.489,1.799-0.97,2.591c-0.483,0.792-0.97,1.594-0.97,2.591
	c0,0.977,0.489,1.789,0.97,2.591c0.483,0.801,0.97,1.614,0.97,2.591c0,0.996-0.489,1.799-0.97,2.591s-0.97,1.594-0.97,2.591
	c0,0.977,0.489,1.789,0.97,2.591c0.483,0.801,0.97,1.614,0.97,2.591c0,0.997-0.489,1.799-0.97,2.591C0.989,30.201,0.5,30.983,0.5,32
	c0,0.975,0.489,1.789,0.971,2.591c0.482,0.801,0.97,1.614,0.97,2.591c0,0.996-0.489,1.799-0.97,2.591
	c-0.483,0.792-0.97,1.594-0.97,2.591c0,0.977,0.489,1.789,0.97,2.591c0.483,0.801,0.97,1.614,0.97,2.591
	c0,0.996-0.489,1.799-0.97,2.591c-0.482,0.792-0.97,1.594-0.97,2.591c0,0.977,0.489,1.789,0.97,2.591
	c0.483,0.801,0.97,1.614,0.97,2.591c0,0.997-0.489,1.799-0.97,2.591c-0.484,0.788-0.972,1.591-0.972,2.587"/>
</svg>